<svg  xmlns="http://www.w3.org/2000/svg" version="1.1" viewBox="0 0 230.4 218.9">
  <!-- Generator: Adobe Illustrator 29.2.1, SVG Export Plug-In . SVG Version: 2.1.0 Build 116)  -->
  <defs>
    <mask id="sh-mask">
      <rect width="230.4" height="218.9" fill="black"/>
      <use href="#sh-content" style="fill:white; stroke:white; stroke-width:0;"/>
    </mask>
    <linearGradient id="sh-shine-grad" x1="-1" y1="0" x2="0" y2="218.9" gradientUnits="userSpaceOnUse">
      <stop offset="0"   stop-color="white" stop-opacity="0"/>
      <stop offset="0.25" stop-color="white" stop-opacity="0"/>
      <stop offset="0.38" stop-color="white" stop-opacity="0.4"/>
      <stop offset="0.5" stop-color="white" stop-opacity="0.75"/>
      <stop offset="0.62" stop-color="white" stop-opacity="0.4"/>
      <stop offset="0.75" stop-color="white" stop-opacity="0"/>
      <stop offset="1"   stop-color="white" stop-opacity="0"/>
    </linearGradient>
  </defs>
  <g id="sh-content">
    <path style="fill: #58a25f;" d="M48,69.6c-6.3,11.2-9.9,24-9.9,37.8s3.9,27.8,10.8,39.3l66.3-38.3V30.4c-28.8,0-53.9,15.8-67.1,39.3Z"/>
    <path style="fill: #355caa;" d="M115.1,108.4l-66.3,38.3c13.4,22.6,38.1,37.8,66.3,37.8s52.8-15.2,66.3-37.8l-66.3-38.3Z"/>
    <path style="fill: #fff;" d="M182.2,69.6c-13.2-23.4-38.3-39.3-67.1-39.3v78l66.3,38.3c6.8-11.5,10.8-24.9,10.8-39.3s-3.6-26.6-9.9-37.8Z"/>
  </g>
  <g>
    <g style="display: none;">
      <path style="fill: none;" d="M16.4,123.8c.3,1.8.8,3.6,1.1,5.5l4.8-.9,3.6,11.5h.7c.4-.2-1.5-5.2-1.8-6.1-3.8-13-5.1-26.6-3.2-40.1.4-3.2,1.2-6.4,1.9-9.5l-5.8-1.2c-.8,3.9-1.6,7.9-2.1,11.9-1.1,9-.8,19.8.8,28.9ZM19.7,86.9c0-.4-.2-.7.5-.6-.5,3.5-1.3,7.1-1.7,10.7-1,9.7-.3,19.4,1.4,28.9-.6-.2-.5-1.1-.6-1.6-.6-3.1-1-6.4-1.3-9.5-.7-8.5-.4-19.6,1.7-27.8Z"/>
      <path style="fill: none;" d="M16.3,129.3c-2.7-12.1-3.4-24.8-1.6-37.1.3-2.4,1-6.1,1.8-8.2.2-.4.6-1.1.1-1.5-.9-.7-5.6-1.1-7-1.8-.6,3.3-1.4,6.6-1.9,10-2.1,14.3-1.4,28.8,2.2,42.8,1,3.8,2.2,7.6,3.7,11.2l3.7-1.2-3.9-13.1c0-.9,2.7-.5,2.9-1.2ZM11.8,120.4c.3,2.3,1.1,4.6,1.2,7l-1.7.4c-2.5-14.4-2.8-29.3.5-43.6l1.4.3c-.8,5.6-1.9,11.2-2.2,16.9-.3,6.1,0,13.1.8,19.2Z"/>
      <path style="fill: none;" d="M183.1,49.1C139.9-1.8,57.4,11.7,32.5,73.4c-26.7,66.2,32.1,134.8,100.6,120.2,65.9-14.1,93.8-92.5,49.9-144.4ZM81.6,186.9C26.8,164.5,10.6,92.5,50.7,48.4,96.1-1.5,179.3,17.4,198.1,82c20.3,70.1-49.1,132.5-116.5,104.9Z"/>
      <path style="fill: none;" d="M194.7,52.3c5.3,7.5,9.2,15.8,12.2,24.5.3.2,6-1.7,6.2-1.9.2-.1.3-.2.2-.4-2.2-6.5-4.9-12.8-8.3-18.8-1.4-2.5-3.1-4.8-4.4-7.3-.4-.1-.7.1-1,.3-.4.2-4.5,3-4.7,3.2-.1.1-.3.2-.2.4ZM200,52.8c4.1,6,7.1,13,9.7,19.7,0,.6-.7.9-1.1.8-2.5-7-5.8-13.8-9.8-20.1,0-.9.6-1.4,1.2-.5Z"/>
      <path style="fill: none;" d="M183.9,29.6c-5.3-4.7-11.2-8.7-17.2-12.3-.3-.1-.4,0-.7.2-.3.2-3.2,5.5-3,5.8,7.2,3.8,13.8,8.9,19.5,14.6l4.7-4.9c-.9-1.1-2.2-2.3-3.3-3.3ZM183.1,33.3c-.1.1-.3.4-.5.5-.4,0-5.9-4.8-6.8-5.6-2.9-2.2-6-4.1-8.8-6.3,0-.2.2-.8.2-.8.4-.3,1.9.8,2.4,1.1,2.4,1.4,5,3.4,7.2,5,1.6,1.2,4.8,3.6,6,5,.3.3.7.6.4,1.1Z"/>
      <polygon style="fill: none;" points="17.7 130.4 21.3 141.9 24.7 140.6 21.6 129.7 17.7 130.4"/>
      <path style="fill: none;" d="M160.8,40.6c-49.3-31.5-118.8-3.9-127.2,54.9-10.2,71.7,74.3,116.2,131.2,74.6,45.3-33.1,43.2-99.4-4-129.5Z"/>
      <path style="fill: none;" d="M176.5,46.7C116.5-13.4,16.4,37.9,30,121.1c9.8,59.9,78.5,91,130.3,58.8,46.3-28.8,55.1-94.3,16.2-133.2ZM50.4,156.7C8.1,105.4,44.5,30.7,109,26.9c57.3-3.4,104.5,49.1,84.7,105.5-21.1,60.1-103.1,73-143.4,24.2Z"/>
      <path style="fill: none;" d="M25.5,142.2c-.5-.7-2.8.6-3.5.9l2.2,5.8,3.3-1.6-2-5.1Z"/>
      <path style="fill: none;" d="M194.4,50.9l5-3.5v-.7c-3.5-4.6-7.1-9-11.1-12.9-.3,0-1.9,1.7-2.3,2-.3.3-2.2,2.4-2.3,2.5-.1.3-.1.4,0,.7.3.6,2.5,2.4,3.1,3.1,1.3,1.5,2.6,3.1,3.8,4.6,1.1,1.3,1.9,2.9,3,4.2h.7ZM187.5,38.5l.6-.6c.4,0,3.2,3.2,3.7,3.7,1,1.1,2.9,3.3,3.6,4.5.1.2.4.4.1.6-.4.3-.8.7-1.2.3l-6.8-8.5Z"/>
      <polygon style="fill: none;" points="16.8 130.9 14.9 131.2 18.2 142.9 20.1 142.4 16.8 130.9"/>
      <path style="fill: none;" d="M18.9,144.4c.1.7,1.8,4.5,2.2,5.2.1.2.2.5.5.6l1.6-.8-2.4-5.9c-.4,0-2,.3-1.9.8Z"/>
      <path style="fill: none;" d="M163.2,187.5c-9,5.4-19.1,9.4-29.4,11.2l1.1,5.8c1.3-.2,2.6-.5,3.8-.7,2.2-.5,8.5-2,10.1-3,.5-.3.6-1.4,1.4-1.7,2.9-.9,3.1,3.7.2,3.3-.4,0-.8-.4-1.2-.4-1.1,0-5.8,1.8-7.3,2.3-2.2.6-4.5,1.2-6.8,1.5l1.2,6.9c.6.4,7.7-1.6,8.9-2,8.9-2.5,17.3-6.3,25.3-11l-7.1-12.1h-.3ZM143.6,199.6c-2.2.5-4.2,1.4-6.5,1.6l.8-.5,9-2.4-3.4,1.3ZM166.4,198.9c-7.6,4.1-16,7.9-24.4,9.9-1.1.3-2.2.7-3.4.5-.2-.5-.6-1.3.1-1.6l10.6-2.9c5.8,1.7,8.3-6.4,2.9-8.6l10.3-4.9,4.1,7.1-.2.5Z"/>
      <path style="fill: none;" d="M221.2,83.4c-2.9-13.6-8.8-26.5-16.4-38.1-.2-.1-3.4,2-3.3,2.5,5.8,8.5,10.7,18,13.4,28l-8.9,2.6c-2.6-8.8-6.7-17.2-11.8-24.8-.2-.2-.2-.5-.3-.8h-.9c0,.2,0,.5,0,.7.3,1,3.7,5.9,4.5,7.4,9.9,18,13.6,38.4,11,58.9l2.1.2-.2-.7c1.4-.9,3.2,0,4.8,0,0,0-.2,1.1-.3,1.2-.2.2-.7-.2-.7.3l8,1.2c.3-.1.3-.3.4-.6.4-2,.6-4.8.7-6.9.7-10.3-.1-20.9-2.3-31ZM209.4,80.3l7.5-2.3c.4.1,1.4,4.5,1.1,4.8-2.7-.2-5.5,1-8.2,1.2-.2,0-1.6-3.5-.3-3.7ZM209.6,87.1c.3-.6,6.5-1.4,7.6-1.7l.2,1.2-7.9,1.4c0-.3,0-.6,0-.9ZM211.5,103.8c-.6-2.3,3.1-1.3,4.5-1.2v.9s-4.5.2-4.5.2ZM219.4,106.2v1.2h-7.9v-1.2h7.9ZM211.6,99.5c1-.5,3-.1,4.1-.5v1.4c-1.3-.2-2.6.2-3.8.2-.9,0-1.2-.8-.4-1.1ZM211,97.3v-.8c0-.2.2-.3.4-.4.4-.1,4-.4,4.2-.3v1.2s-4.6.2-4.6.2ZM210.3,91.1l-.3-1.2,4.6-.7c.8,2-3,1.6-4.3,1.9ZM210.7,93l4.3-.5v1.2s-4.3.5-4.3.5v-1.2ZM215.5,117.2l-4.6-.2c0-.5-.1-1.3.5-1.4,0,.1,0,.4,0,.4.2.2.7-.2,1-.1,1,0,2,.4,3,.2v1.2ZM211.6,113.8c-.6-.2-.4-.9-.4-1.4l4.6.2c.5,2.5-2.6.8-4.2,1.2ZM212.5,110.8c-.2,0-.7-.4-1.1-.3v-1.2c1.1,0,2.4-.1,3.5,0,.3,0,.7.4,1.1.3v1.2s-3.5,0-3.5,0ZM220.3,118.7c-.6,0-2.4.4-2.4-.6.7-1.7,0-6.2.8-7.7.3-.6,1.5-.6,2.1-.6l-.5,8.9ZM220.8,103.8c-1.9-.2-2.3-.6-2.4-2.5-.2-3.4-.7-6.9-.9-10.3,0-.5,0-1.1,0-1.6,0-.2,2-1,2.1-.2.6,4.9,1.4,9.8,1.2,14.7Z"/>
      <path style="fill: #fff;" d="M148.2,193.4c-5.1,1.9-10.5,3.5-15.9,4.4l1.1,7c-.2.3-3.4.7-4,.8-15.9,2.5-33.5.5-48.6-5-24.3-8.8-44.6-27.1-55.8-50.3l4.3-2.2-2.6-6.8,1.6-.5c.2-.3-1.5-4.5-1.7-5.3-4.5-14.5-5.7-29.3-3.2-44.3.4-2.5,1.1-5,1.6-7.5-.2-.5-5.4-1.4-6.4-1.8-.3-.1-.4.1-.3-.4,6.7-26.1,24.2-48.6,47.6-61.8,15-8.4,32.1-12.9,49.3-12.9v-1.2c-8.8,0-17.7,1.1-26.2,3.4C56.8,17.4,30.2,42,19.2,73.5l-2.2,7.7-8.4-1.9c-.6,3.5-1.6,7-2.1,10.5-2.1,13.6-1.5,27.8,1.5,41.3,1.2,5.2,2.9,10.3,4.6,15.4l4.9-1.7c.7.2,2.5,6.3,3.3,6.8.7.4,2.2-1.2,3.1-.8,8.7,18.1,23.4,33.6,40.8,43.6,18.3,10.4,38.7,14.7,59.7,12.9,3.2-.3,6.3-1,9.5-1.2l1.4,7.8c.2.3.6.2.8.1,2.3-.1,6.5-1.4,8.8-2,9.6-2.7,18.8-6.8,27.3-11.9l-8.4-14.4c-5.1,2.8-10.3,5.5-15.8,7.6ZM17.7,82.9l5.8,1.2c-.7,3.1-1.5,6.3-1.9,9.5-1.9,13.5-.6,27.1,3.2,40.1.3.9,2.2,5.9,1.8,6.2h-.7c0-.1-3.6-11.6-3.6-11.6l-4.8.9c-.3-1.8-.8-3.6-1.1-5.5-1.5-9.1-1.9-19.9-.8-28.9.5-4,1.4-8,2.1-11.9ZM24.7,140.6l-3.4,1.4-3.6-11.5,3.8-.7,3.1,10.9ZM13.6,144.8c-1.4-3.6-2.7-7.4-3.7-11.2-3.6-14-4.3-28.5-2.2-42.8.5-3.4,1.2-6.7,1.9-10,1.4.7,6,1.1,7,1.8.5.4,0,1-.1,1.5-.8,2-1.4,5.8-1.8,8.2-1.8,12.3-1.1,25,1.6,37.1-.2.7-2.8.3-2.9,1.2l3.9,13.1-3.7,1.2ZM14.9,131.2l1.9-.2,3.4,11.5-1.9.5-3.3-11.7ZM21.7,150.3c-.3-.1-.4-.4-.5-.6-.4-.8-2.1-4.5-2.2-5.2,0-.6,1.5-.8,1.9-.8l2.4,5.9-1.6.8ZM22,143c.7-.3,3-1.5,3.5-.9l2,5.1-3.3,1.6-2.2-5.8ZM145.3,210.7c-1.2.3-8.3,2.3-8.9,2l-1.2-6.9c2.3-.4,4.5-.9,6.8-1.5,1.5-.4,6.2-2.2,7.3-2.3.4,0,.8.4,1.2.4,2.9.4,2.7-4.2-.2-3.3-.9.3-1,1.4-1.4,1.7-1.7,1-8,2.5-10.1,3-1.2.3-2.5.6-3.8.7l-1.1-5.8c10.4-1.9,20.4-5.8,29.4-11.2h.3c0,0,7.1,12.2,7.1,12.2-7.9,4.7-16.4,8.4-25.3,11Z"/>
      <path style="fill: #fff;" d="M186.4,51.4c-23.6-30.4-64.1-42.4-100.7-30C36.5,38.1,11.1,94.5,32.3,142.6c23.5,53.5,91.2,71.4,137.9,35.4,39.5-30.4,46.9-87.1,16.2-126.6ZM32.5,73.4C57.4,11.7,139.9-1.8,183.1,49.1c43.9,51.9,15.9,130.4-49.9,144.4-68.6,14.6-127.3-54-100.6-120.2Z"/>
      <path style="fill: #fff;" d="M214.5,60.1c-2.7-5.7-6-11.1-9.6-16.3-.3-.3-.4,0-.6.1-.6.4-3.7,2.8-3.9,2.6-5-7.5-11.3-14-18.1-19.7-5-4.2-10.4-8.2-16.3-11.2-.5,0-1.1,1.3-1.3,1.8-.9,1.5-2.5,4-3.1,5.5-.1.3-.3.6-.2.9,10.3,5.6,19.9,13.4,27.3,22.4.6.7,3.9,4.9,4,5.3,0,.3.1.6,0,.8l-1.3,1c5.2,7.5,9.4,15.7,12.3,24.4,1.7,5.3,3,10.8,3.7,16.4,1.2,8.9.9,17.9-.1,26.7l16.4,2.4c3.3-21.4,0-43.6-9.1-63.1ZM200.7,48.4c1.3,2.5,3,4.8,4.4,7.3,3.4,6,6.1,12.3,8.3,18.8,0,.2,0,.3-.2.4-.3.2-6,2.1-6.2,1.9-3-8.7-6.9-17-12.2-24.5,0-.2.1-.3.2-.4.2-.2,4.3-3,4.7-3.2.3-.2.6-.4,1-.3ZM182.6,37.9c-5.8-5.7-12.3-10.8-19.5-14.6-.2-.3,2.7-5.5,3-5.8.2-.2.3-.3.7-.2,6,3.6,11.9,7.6,17.2,12.3,1.1,1,2.4,2.2,3.3,3.3l-4.7,4.9ZM190.7,46.8c-1.2-1.5-2.5-3.1-3.8-4.6-.6-.7-2.9-2.6-3.1-3.1-.1-.3-.1-.4,0-.7,0-.2,2-2.2,2.3-2.5.3-.3,1.9-2.1,2.3-2,4.1,3.9,7.7,8.4,11.1,12.9v.7c0,0-4.9,3.5-4.9,3.5h-.7c-1.2-1.2-2-2.8-3-4.2ZM223.4,114.5c-.1,2.1-.3,4.9-.7,6.9,0,.3,0,.5-.4.6l-8-1.2c0-.4.5-.1.7-.3,0,0,.3-1.1.3-1.2-1.6.1-3.4-.9-4.8,0l.2.7-2.1-.2c2.6-20.5-1.1-40.9-11-58.9-.8-1.5-4.3-6.4-4.5-7.4,0-.3,0-.5,0-.8h.9c0,.3.1.6.3.8,5.1,7.6,9.2,16,11.8,24.8l8.9-2.6c-2.7-10-7.6-19.5-13.4-28,0-.4,3.1-2.6,3.3-2.5,7.7,11.6,13.5,24.5,16.4,38.1,2.2,10.1,3,20.8,2.3,31Z"/>
      <path style="fill: #fff;" d="M31.9,148.6c0,.4-.3.9-.6,1.2-.6.7-2.7,1.2-2.5,2,2,3.6,4.1,7.2,6.5,10.6,1.4,2,3.4,4.8,5,6.5.2.2.7.9,1,.8l3-2.9c-2.4-2.8-4.7-5.8-6.8-8.8-2-3-3.6-6.4-5.7-9.3Z"/>
      <path style="fill: #fff;" d="M28.3,62.3c-1.9,4.1-3.7,8.2-5.2,12.4-.4,1-1.4,3.4-1.5,4.3,0,.3,0,.4.2.7.4.3,3.8,1,4.1.8l6-16.3c-.6-.2-1.3-.4-1.8-.7-.4-.2-1.4-1.5-1.7-1.2Z"/>
      <path style="fill: #fff;" d="M116.5,203.5c4.4.2,8.7-.3,13.1-.8.9-.3.3-4.4,0-4.5l-13,1.2v4.1Z"/>
      <path style="fill: #fff;" d="M216.8,126.9l-7.3-1.2v1.2s7.7,1.4,7.7,1.4c0-.5.2-1.2-.4-1.4Z"/>
      <path style="fill: #fff;" d="M66.3,24.7c-1.6-1.6-4.2,1-2.5,2.6,1.7,1.6,4-1,2.5-2.6Z"/>
      <path style="fill: #fff;" d="M69,21.7c-.1,0-1.1.9-1.1.9-.3.7,0,2,.9,2.2,3.5,1.2,3.3-4.2.2-3.2Z"/>
      <path style="fill: #fff;" d="M35.2,53.5c-2.1,0-2.5,3.5,0,3.5,2.6,0,1.9-3.6,0-3.5Z"/>
      <path style="fill: #fff;" d="M44.5,41c-2.1.4-1.7,3.7.4,3.6,2.3-.1,1.9-4-.4-3.6Z"/>
      <path style="fill: #fff;" d="M84.1,15.2c-2.4.1-2,3.7.2,3.5,2.2-.1,2-3.6-.2-3.5Z"/>
      <path style="fill: #fff;" d="M48.4,37.2c-2.3.2-2,3.7.2,3.5,2.3-.1,2-3.7-.2-3.5Z"/>
      <path style="fill: #fff;" d="M80.5,17.6c-1.5-1.5-4.1.7-2.7,2.3,1.4,1.7,4.4-.6,2.7-2.3Z"/>
      <path style="fill: #fff;" d="M32.5,61.6c2.3-.1,1.9-3.7-.2-3.5-2.4.2-1.9,3.7.2,3.5Z"/>
      <path style="fill: #fff;" d="M42,48.4c.3,0,.3-.6.5-.9.1-.2.6-.1.6-.6,0-2-2.6-2.6-3.4-.8-.7,1.6.8,2.7,2.3,2.3Z"/>
      <path style="fill: #fff;" d="M195.6,154.4c-1.9.4-1.2,4,1.3,3.3,1.5-.4,1.3-3.8-1.3-3.3Z"/>
      <path style="fill: #fff;" d="M60.8,27.2c-2.4,0-2.3,3.3-.2,3.5,2.1.1,2.5-3.4.2-3.5Z"/>
      <path style="fill: #fff;" d="M37.3,49.4c-1.6.5-.9,3.9,1.3,3.2,2.1-.6,1.4-4-1.3-3.2Z"/>
      <path style="fill: #fff;" d="M186.7,166.7c-1.8.5-1.2,4,1.3,3.2,1.9-.6,1.2-4-1.3-3.2Z"/>
      <path style="fill: #fff;" d="M193.4,158.5c-2.4,0-1.9,3.7.2,3.5,2.1-.1,2-3.6-.2-3.5Z"/>
      <path style="fill: #fff;" d="M74.9,22.5c2-.5,1.2-3.6-.9-3.3-2,.4-1.9,3.9.9,3.3Z"/>
      <path style="fill: #fff;" d="M198.2,150.1c-1.5.3-1.5,2.6-.2,3.2,2.6,1.1,3.5-3.9.2-3.2Z"/>
      <path style="fill: #fff;" d="M54.1,35.7c.3-.9-.2-.6-.3-.8-.2-.3-.2-.8-.6-1-.8-.4-2.1,0-2.5.9-.9,1.9,2.4,3.7,3.4,1Z"/>
      <path style="fill: #fff;" d="M182.8,173.3c1.3,1.4,3.7-.3,2.6-2.2-1.3-2.1-4.4.3-2.6,2.2Z"/>
      <path style="fill: #fff;" d="M57.8,33c1.1-1.3-.3-3-2-2.5-2.5.8-.1,5.1,2,2.5Z"/>
      <path style="fill: #fff;" d="M176.2,177.2c-1.6.3-1.5,2.8-.2,3.2,3,1,3.2-3.8.2-3.2Z"/>
      <path style="fill: #fff;" d="M171.8,183.4c1.7,1.1,3.6-1.1,2.2-2.6-1.8-1.9-4.2,1.3-2.2,2.6Z"/>
      <path style="fill: #fff;" d="M188.8,164c-.4,1.5,2.3,3.1,3.2,1.4,1.3-2.6-2.6-3.5-3.2-1.4Z"/>
      <path style="fill: #fff;" d="M179.3,174.2c-1.7,1.2.2,4.2,2,2.6,1.7-1.5-.1-4-2-2.6Z"/>
      <path style="fill: #fff;" d="M210,122.4v.8s4.5.7,4.5.7l.2-1.1c0-.4-4.5-1.3-4.7-.5Z"/>
      <path style="fill: #fff;" d="M205.9,138.2c-.3,1,3.1,1.9,3.8,2,.3,0,.5,0,.7-.2.1-.2.2-.8,0-1-.2-.2-4.3-1.6-4.5-.8Z"/>
      <polygon style="fill: #fff;" points="208.8 129.9 213.1 130.9 213.1 129.6 208.8 128.7 208.8 129.9"/>
      <path style="fill: #fff;" d="M211.4,136c-.1-.2-3.2-.9-3.7-1.2-.6,0-.8,1-.4,1.2l4.2,1.2c0-.3.1-.9,0-1.2Z"/>
      <path style="fill: #fff;" d="M208.5,131.8c-.5,0-.5.4-.6.8,0,.3.4.3.6.4.6.2,3,.9,3.6,1,.6,0,.4-1,.3-1.2-.1-.2-3.5-1-3.9-1Z"/>
      <path style="fill: #fff;" d="M205.7,140.8c-.8-.2-1,.8-.6,1.1.2.1,3.4,1.4,3.6,1.4.5,0,.7-.8.5-1.1,0-.2-3.2-1.3-3.6-1.4Z"/>
      <path style="fill: #fff;" d="M47,175.4c.5.5,2.4-1.5,2.5-1.8.3-.6,0-1.4-.7-1.2-.3,0-3.2,2.7-1.8,3Z"/>
      <path style="fill: #fff;" d="M57.2,184.3c.4,0,2-2.2,2.2-2.6.1-.5-.3-1-.7-.9-.3,0-3.1,3.3-1.4,3.6Z"/>
      <path style="fill: #fff;" d="M59.1,185.6l2.2-2.8c-.4-.5-.7-1.1-1.3-.5-.6.5-2.3,3-.9,3.3Z"/>
      <path style="fill: #fff;" d="M51.3,174.6l-.8-.8c-.6.7-2.6,2-2.2,2.9,1,1.3,2.1-1.4,3-2.1Z"/>
      <path style="fill: #fff;" d="M46,173.9c.4-.2,2.5-2.3,2.2-2.8-.6-.8-2.9,1.3-3.1,1.8-.1.5.4,1.2.9.9Z"/>
      <path style="fill: #fff;" d="M57.8,179.8c0,0-.9-.3-1.2-.1-.5.3-1.2,2-1.9,2.4l1.1.8c.3-.5,2.3-2.7,2-3.1Z"/>
      <path style="fill: #fff;" d="M77,195.4c0-1.1,2.6-4.1,0-3.4-.4,1.3-2.3,3.1,0,3.4Z"/>
      <path style="fill: #fff;" d="M71,192.5l1.2-3.3h-1.1c-.4,1.2-2.6,3.4-.1,3.3Z"/>
      <path style="fill: #fff;" d="M72.9,193.5l1.5-3.3-1.2-.2c-.1,1.4-2.9,3.6-.3,3.6Z"/>
      <path style="fill: #fff;" d="M54.3,181.2c.2-.2,1.7-2.2,1.8-2.3,0-.3-.5-.8-.8-.8-.2,0-2.3,2.4-2.3,2.5,0,.5.7,1.1,1.3.6Z"/>
      <path style="fill: #fff;" d="M46.7,170.1l-.8-.8-2.5,2.3c1.2,1.9,2.3-.6,3.3-1.5Z"/>
      <path style="fill: #fff;" d="M51.9,180c.6.2,1.9-1.9,2.5-2.3.2-.4-.4-1.1-.8-1-.2.6-3.2,2.9-1.7,3.4Z"/>
      <path style="fill: #fff;" d="M101.4,202.3h1.2s.2-3.6.2-3.6h-1c-.4,1.3-.6,2.4-.5,3.6Z"/>
      <path style="fill: #fff;" d="M98.8,198.3c0,0-1.1-.3-1.2-.3l-.5,3.6h1.2c-.3-.6.6-3.1.5-3.3Z"/>
      <path style="fill: #fff;" d="M69,191.3c.1,0,1-2.4,1.4-2.7-.7-1.9-2.5,1.4-2.6,2-.1.7.7,1,1.1.8Z"/>
      <path style="fill: #fff;" d="M82.9,194.3l-1,3.1,1.2.4c0-1.2,2.1-4.2-.3-3.5Z"/>
      <path style="fill: #fff;" d="M88.2,195.7c0,0-.6-.2-.8-.2-.4.1-1.4,3.3-1.1,3.6h1.2c-.2-.7,1-2.9.7-3.3Z"/>
      <polygon style="fill: #fff;" points="76.2 191.1 75.1 190.8 73.9 194.2 74.7 194.4 76.2 191.1"/>
      <path style="fill: #fff;" d="M63.3,187.9c0-.7,2.3-3,1.1-3.3-.6-.2-2.2,2.2-2.2,2.6,0,.5.7.9,1.2.8Z"/>
      <path style="fill: #fff;" d="M66.5,190.3c.3,0,2-2.6,2-2.8,0-.5-.8-.8-1.2-.8,0,.8-2.4,3.2-.8,3.6Z"/>
      <path style="fill: #fff;" d="M78.3,196.1c1,.3,1.9-3.2,1.8-3.3,0,0-.7-.2-.8-.2-.4,0-1.8,3.3-1,3.6Z"/>
      <path style="fill: #fff;" d="M91.2,196.8c-.3.5-1.2,3.9.2,3.6.2,0,1.1-3.2.8-3.6,0-.1-.8-.4-1,0Z"/>
      <path style="fill: #fff;" d="M85,198.5c.4,0,1.4-3.2,1.1-3.5l-.9-.3c0,1.2-2,3.7-.1,3.8Z"/>
      <path style="fill: #fff;" d="M99.3,202.1h1.2s.2-3.6.2-3.6h-.8c-.6.2-.6,2.9-.6,3.6Z"/>
      <path style="fill: #fff;" d="M53,176.1c-.3-.3-.5-.7-1-.6-.2,0-2,1.9-2.1,2.1v.5c.8,1.5,2.3-1.7,3.1-2Z"/>
      <path style="fill: #fff;" d="M89.6,199.4c.1-.2.5-2.6.8-3.1l-1.2-.2c-.1.9-.8,2.2-.9,3.1,0,.7,1.1.4,1.3.2Z"/>
      <path style="fill: #fff;" d="M64.6,189.1c.6.1,1.6-2.3,2-2.8,0-.6-.7-.7-1.1-.5,0,.7-2.4,3-.8,3.3Z"/>
      <path style="fill: #fff;" d="M92.9,200.7l.8.2.7-3.6c-1.5-1.2-1.9,3.1-1.5,3.4Z"/>
      <path style="fill: #fff;" d="M104.2,202.4c.2,0,0,.7.6.5l.2-3.8-1.2.2c-.2.5.2,1.2.2,1.6,0,.1-.4,0-.5.4,0,.4,0,.9,0,1.3l.6-.2Z"/>
      <polygon style="fill: #fff;" points="109.3 203.1 109.3 199.5 108.1 199.5 108.1 202.8 109.3 203.1"/>
      <polygon style="fill: #fff;" points="82 193.5 81 193.2 79.9 196.2 81 196.7 82 193.5"/>
      <path style="fill: #fff;" d="M110.4,202.8c.2.2.8.2,1.1.2v-3.6c-1.5-.8-1.4,3.2-1.1,3.4Z"/>
      <path style="fill: #fff;" d="M106.9,202.8l.2-3.3-1.2-.3c0,1.3.2,2.3-.2,3.6h1.2Z"/>
      <path style="fill: #fff;" d="M60.5,186.5c.2.2.6.3.8.2.2,0,1.8-2.9,1.7-3.1-1.6,0-1.4.6-2.1,1.6-.2.3-1.2.7-.5,1.3Z"/>
      <path style="fill: #fff;" d="M113.6,203.1v-3.1s-1.2-.3-1.2-.3c-.1,1.2.4,2.2,0,3.4h1.2Z"/>
      <path style="fill: #fff;" d="M95.5,201.1c.7.2.9-2.6,1.1-3.1l-.9-.3c-.1.7-1.3,3.1-.1,3.4Z"/>
      <path style="fill: #fff;" d="M13.2,84.4l-1.4-.3c-3.3,14.3-3,29.2-.5,43.6l1.7-.4c-.1-2.3-.9-4.7-1.2-7-.8-6-1-13.1-.8-19.2.2-5.7,1.3-11.3,2.2-16.9Z"/>
      <path style="fill: #fff;" d="M152.2,196.2c5.3,2.2,2.9,10.3-2.9,8.6l-10.6,2.9c-.7.3-.4,1.1-.1,1.6,1.2.2,2.3-.2,3.4-.5,8.4-2,16.8-5.8,24.4-9.9l.2-.5-4.1-7.1-10.3,4.9Z"/>
      <path style="fill: #fff;" d="M137.1,201.1c2.2-.1,4.3-1.1,6.5-1.6l3.4-1.3-9,2.4-.8.5Z"/>
      <path style="fill: #fff;" d="M19.3,124.2c.1.5,0,1.4.6,1.6-1.7-9.5-2.4-19.2-1.4-28.9.4-3.6,1.1-7.1,1.7-10.7-.7-.1-.4.2-.5.6-2,8.3-2.3,19.3-1.7,27.8.2,3.1.6,6.5,1.3,9.5Z"/>
      <path style="fill: #fff;" d="M198.1,82C179.3,17.4,96.1-1.5,50.7,48.4c-40.1,44-23.9,116.1,30.9,138.5,67.5,27.6,136.9-34.8,116.5-104.9ZM160.4,179.9c-51.8,32.2-120.5,1.1-130.3-58.8C16.4,37.9,116.5-13.4,176.5,46.7c38.9,38.9,30.2,104.4-16.2,133.2Z"/>
      <path style="fill: #fff;" d="M209.7,83.9c2.7-.2,5.5-1.4,8.2-1.2.3-.3-.7-4.7-1.1-4.8l-7.5,2.3c-1.3.2,0,3.6.3,3.7Z"/>
      <path style="fill: #fff;" d="M217.4,89.3c0,.5,0,1.1,0,1.6.2,3.4.8,6.9.9,10.3.1,1.9.5,2.4,2.4,2.5.1-4.9-.6-9.8-1.2-14.7-.1-.8-2.1,0-2.1.2Z"/>
      <path style="fill: #fff;" d="M218.7,110.4c-.8,1.4,0,5.9-.8,7.7,0,.9,1.8.5,2.4.6l.5-8.9c-.6,0-1.8,0-2.1.6Z"/>
      <path style="fill: #fff;" d="M217.2,85.3c-1.1.3-7.3,1.1-7.6,1.7-.1.3,0,.6,0,.9l7.9-1.4-.2-1.2Z"/>
      <rect style="fill: #fff;" x="211.5" y="106.2" width="7.9" height="1.2"/>
      <path style="fill: #fff;" d="M214.9,109.3c-1.1-.1-2.4,0-3.5,0v1.2c.4-.1.9.3,1.1.3h3.5v-1.2c-.4,0-.8-.2-1.1-.3Z"/>
      <path style="fill: #fff;" d="M211.5,103.8l4.6-.2v-.9c-1.5-.1-5.1-1.2-4.6,1.2Z"/>
      <path style="fill: #fff;" d="M211.2,112.4c0,.5-.2,1.2.4,1.4,1.5-.4,4.6,1.3,4.2-1.2l-4.6-.2Z"/>
      <path style="fill: #fff;" d="M215.5,95.9c-.1-.1-3.8.2-4.2.3-.2,0-.3.2-.4.4v.8s4.5-.2,4.5-.2v-1.2Z"/>
      <path style="fill: #fff;" d="M214.6,89.2l-4.6.7.3,1.2c1.3-.3,5.1.1,4.3-1.9Z"/>
      <path style="fill: #fff;" d="M212,100.7c1.2,0,2.5-.4,3.8-.2v-1.4c-1.2.4-3.1,0-4.1.5-.8.4-.5,1.2.4,1.1Z"/>
      <polygon style="fill: #fff;" points="215.1 92.5 210.7 93 210.7 94.2 215 93.7 215.1 92.5"/>
      <path style="fill: #fff;" d="M212.5,115.8c-.3,0-.8.3-1,.1,0,0,0-.3,0-.4-.6.2-.5.9-.5,1.4l4.6.2v-1.2c-1,.2-2-.1-3-.2Z"/>
      <path style="fill: #fff;" d="M209.7,72.6c-2.7-6.7-5.7-13.7-9.7-19.7-.7-1-1.1-.5-1.2.5,4,6.3,7.3,13,9.8,20.1.5.1,1.1-.2,1.1-.8Z"/>
      <path style="fill: #fff;" d="M176.7,27.2c-2.2-1.7-4.8-3.6-7.2-5-.4-.3-2-1.4-2.4-1.1,0,0-.2.6-.2.8,2.8,2.2,5.9,4.1,8.8,6.3,1,.8,6.4,5.7,6.8,5.6.2,0,.4-.3.5-.5.3-.5,0-.7-.4-1.1-1.3-1.4-4.4-3.8-6-5Z"/>
      <path style="fill: #fff;" d="M195.5,46.8c.2-.3,0-.4-.1-.6-.7-1.2-2.6-3.4-3.6-4.5-.5-.5-3.3-3.8-3.7-3.7l-.6.6,6.8,8.5c.4.4.8,0,1.2-.3Z"/>
      <path style="fill: #fff;" d="M109,26.9C44.5,30.7,8.1,105.4,50.4,156.7c40.2,48.8,122.3,35.9,143.4-24.2,19.8-56.4-27.4-108.9-84.7-105.5ZM164.8,170.2c-56.9,41.6-141.4-2.9-131.2-74.6,8.4-58.9,77.9-86.5,127.2-54.9,47.2,30.2,49.3,96.5,4,129.5Z"/>
    </g>
    <g>
      <path style="fill: #e9c967;" d="M163.2,187.5c-9,5.4-19.1,9.4-29.4,11.2l1.1,5.8c1.3-.2,2.6-.5,3.8-.7,2.2-.5,8.5-2,10.1-3,.5-.3.6-1.4,1.4-1.7,2.9-.9,3.1,3.7.2,3.3-.4,0-.8-.4-1.2-.4-1.1,0-5.8,1.8-7.3,2.3-2.2.6-4.5,1.2-6.8,1.5l1.2,6.9c.6.4,7.7-1.6,8.9-2,8.9-2.5,17.3-6.3,25.3-11l-7.1-12.1h-.3ZM143.6,199.6c-2.2.5-4.2,1.4-6.5,1.6l.8-.5,9-2.4-3.4,1.3ZM166.4,198.9c-7.6,4.1-16,7.9-24.4,9.9-1.1.3-2.2.7-3.4.5-.2-.5-.6-1.3.1-1.6l10.6-2.9c5.8,1.7,8.3-6.4,2.9-8.6l10.3-4.9,4.1,7.1-.2.5Z"/>
      <path style="fill: #e9c967;" d="M16.3,129.3c-2.7-12.1-3.4-24.8-1.6-37.1.3-2.4,1-6.1,1.8-8.2.2-.4.6-1.1.1-1.5-.9-.7-5.6-1.1-7-1.8-.6,3.3-1.4,6.6-1.9,10-2.1,14.3-1.4,28.8,2.2,42.8,1,3.8,2.2,7.6,3.7,11.2l3.7-1.2-3.9-13.1c0-.9,2.7-.5,2.9-1.2ZM11.8,120.4c.3,2.3,1.1,4.6,1.2,7l-1.7.4c-2.5-14.4-2.8-29.3.5-43.6l1.4.3c-.8,5.6-1.9,11.2-2.2,16.9-.3,6.1,0,13.1.8,19.2Z"/>
      <path style="fill: #e9c967;" d="M16.4,123.8c.3,1.8.8,3.6,1.1,5.5l4.8-.9,3.6,11.5h.7c.4-.2-1.5-5.2-1.8-6.1-3.8-13-5.1-26.6-3.2-40.1.4-3.2,1.2-6.4,1.9-9.5l-5.8-1.2c-.8,3.9-1.6,7.9-2.1,11.9-1.1,9-.8,19.8.8,28.9ZM19.7,86.9c0-.4-.2-.7.5-.6-.5,3.5-1.3,7.1-1.7,10.7-1,9.7-.3,19.4,1.4,28.9-.6-.2-.5-1.1-.6-1.6-.6-3.1-1-6.4-1.3-9.5-.7-8.5-.4-19.6,1.7-27.8Z"/>
      <polygon style="fill: #e9c967;" points="17.7 130.4 21.3 141.9 24.7 140.6 21.6 129.7 17.7 130.4"/>
      <polygon style="fill: #e9c967;" points="16.8 130.9 14.9 131.2 18.2 142.9 20.1 142.4 16.8 130.9"/>
      <path style="fill: #e9c967;" d="M25.5,142.2c-.5-.7-2.8.6-3.5.9l2.2,5.8,3.3-1.6-2-5.1Z"/>
      <path style="fill: #e9c967;" d="M18.9,144.4c.1.7,1.8,4.5,2.2,5.2.1.2.2.5.5.6l1.6-.8-2.4-5.9c-.4,0-2,.3-1.9.8Z"/>
      <path style="fill: #e9c967;" d="M201.4,47.8c5.8,8.5,10.7,18,13.4,28l-8.9,2.6c-2.6-8.8-6.7-17.2-11.8-24.8-.2-.2-.2-.5-.3-.8h-.9c0,.2,0,.5,0,.7.3,1,3.7,5.9,4.5,7.4,9.9,18,13.6,38.4,11,58.9l2.1.2-.2-.7c1.4-.9,3.2,0,4.8,0,0,0-.2,1.1-.3,1.2-.2.2-.7-.2-.7.3l8,1.2c.3-.1.3-.3.4-.6.4-2,.6-4.8.7-6.9.7-10.3-.1-20.9-2.3-31-2.9-13.6-8.8-26.5-16.4-38.1-.2-.1-3.4,2-3.3,2.5ZM209.6,87.1c.3-.6,6.5-1.4,7.6-1.7l.2,1.2-7.9,1.4c0-.3,0-.6,0-.9ZM211.5,103.8c-.6-2.3,3.1-1.3,4.5-1.2v.9s-4.5.2-4.5.2ZM219.4,106.2v1.2h-7.9v-1.2h7.9ZM211.6,99.5c1-.5,3-.1,4.1-.5v1.4c-1.3-.2-2.6.2-3.8.2-.9,0-1.2-.8-.4-1.1ZM211,97.3v-.8c0-.2.2-.3.4-.4.4-.1,4-.4,4.2-.3v1.2s-4.6.2-4.6.2ZM210.3,91.1l-.3-1.2,4.6-.7c.8,2-3,1.6-4.3,1.9ZM210.7,93l4.3-.5v1.2s-4.3.5-4.3.5v-1.2ZM215.5,117.2l-4.6-.2c0-.5-.1-1.3.5-1.4,0,.1,0,.4,0,.4.2.2.7-.2,1-.1,1,0,2,.4,3,.2v1.2ZM211.6,113.8c-.6-.2-.4-.9-.4-1.4l4.6.2c.5,2.5-2.6.8-4.2,1.2ZM212.5,110.8c-.2,0-.7-.4-1.1-.3v-1.2c1.1,0,2.4-.1,3.5,0,.3,0,.7.4,1.1.3v1.2s-3.5,0-3.5,0ZM220.3,118.7c-.6,0-2.4.4-2.4-.6.7-1.7,0-6.2.8-7.7.3-.6,1.5-.6,2.1-.6l-.5,8.9ZM219.6,89.1c.6,4.9,1.4,9.8,1.2,14.7-1.9-.2-2.3-.6-2.4-2.5-.2-3.4-.7-6.9-.9-10.3,0-.5,0-1.1,0-1.6,0-.2,2-1,2.1-.2ZM217.9,82.7c-2.7-.2-5.5,1-8.2,1.2-.2,0-1.6-3.5-.3-3.7l7.5-2.3c.4.1,1.4,4.5,1.1,4.8Z"/>
      <path style="fill: #e9c967;" d="M194.7,52.3c5.3,7.5,9.2,15.8,12.2,24.5.3.2,6-1.7,6.2-1.9.2-.1.3-.2.2-.4-2.2-6.5-4.9-12.8-8.3-18.8-1.4-2.5-3.1-4.8-4.4-7.3-.4-.1-.7.1-1,.3-.4.2-4.5,3-4.7,3.2-.1.1-.3.2-.2.4ZM200,52.8c4.1,6,7.1,13,9.7,19.7,0,.6-.7.9-1.1.8-2.5-7-5.8-13.8-9.8-20.1,0-.9.6-1.4,1.2-.5Z"/>
      <path style="fill: #e9c967;" d="M183.9,29.6c-5.3-4.7-11.2-8.7-17.2-12.3-.3-.1-.4,0-.7.2-.3.2-3.2,5.5-3,5.8,7.2,3.8,13.8,8.9,19.5,14.6l4.7-4.9c-.9-1.1-2.2-2.3-3.3-3.3ZM183.1,33.3c-.1.1-.3.4-.5.5-.4,0-5.9-4.8-6.8-5.6-2.9-2.2-6-4.1-8.8-6.3,0-.2.2-.8.2-.8.4-.3,1.9.8,2.4,1.1,2.4,1.4,5,3.4,7.2,5,1.6,1.2,4.8,3.6,6,5,.3.3.7.6.4,1.1Z"/>
      <path style="fill: #e9c967;" d="M194.4,50.9l5-3.5v-.7c-3.5-4.6-7.1-9-11.1-12.9-.3,0-1.9,1.7-2.3,2-.3.3-2.2,2.4-2.3,2.5-.1.3-.1.4,0,.7.3.6,2.5,2.4,3.1,3.1,1.3,1.5,2.6,3.1,3.8,4.6,1.1,1.3,1.9,2.9,3,4.2h.7ZM187.5,38.5l.6-.6c.4,0,3.2,3.2,3.7,3.7,1,1.1,2.9,3.3,3.6,4.5.1.2.4.4.1.6-.4.3-.8.7-1.2.3l-6.8-8.5Z"/>
      <path style="fill: #e9c967;" d="M211,47.6c-.8-1.3-3.4-5.4-4.3-6.2-2.2-1.8-4.7,1.4-5.7.8-7.1-9.3-15.8-17.6-25.5-24.2-1.9-1.3-4.3-2.9-6.3-4-1.8-.9-3.5-2.2-5.3-.4-.8.8-4.9,7.9-5.2,8.9,0,.4,0,1.7-.2,1.7-9.5-4.7-19.7-8.1-30.2-9.6-9.4-1.3-19.5-1.1-28.9.5-3.6.6-7.2,1.7-10.7,2.3,0-.7,0-1.3-.1-1.9-.2-1-.8-1.3-1.1-2.1,7-2,14.2-3.3,21.5-3.8,2.3-.2,5.2.3,7.3-.4,2.5-.8,2.7-5.4-.2-6.3-2.3-.7-8.1,0-10.7.2C62.8,7.2,26.5,36.9,14.9,77.8c-2.6,0-6.7-2.9-8.5.1-.7,1.2-1.4,5.3-1.7,6.9-3.9,19.2-2.4,40.5,4.2,58.9.4,1.2,1.4,4.4,2.4,5,1.9,1.2,4.4-.7,5-.3.8,1.5,2,5.7,3.8,6.2.9.2,2.1-.4,2.6,0,18.8,36.2,57.2,57.7,98.1,55.9l10.7-1.2c1.3,2.1.3,7.2,3.7,7.6,1.8.2,7.3-1.3,9.4-1.9,8.9-2.4,21.3-7.1,28.9-12.3,1.4-1,2.2-1.9,1.7-3.7l-8.7-14.8,1.8-1.4c.5,1.3,1.6,2.2,1.8,3.5.6.9,5.4-.4,6.3-1.1.4-.3.3-1.5.8-1.9.3-.3,1.8-.4,2.8-1.3.6-.6,1-1.8,1.3-2.1.5-.4,1.7-.4,2.5-1.3.6-.6,1-2.3,1.2-2.4.5-.4,1.6-.3,2.4-1.2.7-.8.9-2.2,1.3-2.5.4-.4,1.9-.8,2.5-1.3.7-.6.5-2.4.8-2.7.2-.2,1.8-.8,2.5-1.5.5-.7.5-2,1-2.6.4-.5,1.3-.6,1.9-1.7.5-.9.6-2.2.9-2.6.3-.5,2.1-1.3,2.3-2.4.2-1.1,0-.4.3-1,0-.3,0-.7.1-1,.1-.3,1.2-.8,1.6-1.3,2.1-2.7.2-7.2-3.4-7.3,3.3-7.5,6.1-15.3,7.4-23.5,1.7-.1.7.3.5,1.1-.5,2.6-1.1,5.6-1.8,8-.7,2.4-2.5,5.8-2.9,8.1-.5,2.7.7,3.2,2.9,4.1,1.9.8,5.1,2,6.5-.3.4-.6,1.2-3.1,1.5-4,.3-.9-.1-1.9.9-2.7l1.8-7.2c3.4.5,4.9-2.3,4.1-5.3,3.1.3,5.8,1.6,6.7-2.3.5-2.2.9-6.3,1-8.6,1.3-23-4.1-47.7-16.5-67.1ZM172.4,200.2c-8.6,5-17.7,9.2-27.3,11.9-2.3.6-6.5,1.9-8.8,2-.3,0-.7.1-.8-.1l-1.4-7.8c-3.2.2-6.3.9-9.5,1.2-21,1.8-41.5-2.5-59.7-12.9-17.5-9.9-32.1-25.5-40.8-43.6-.9-.4-2.4,1.2-3.1.8-.7-.5-2.5-6.6-3.3-6.8l-4.9,1.7c-1.8-5.1-3.4-10.1-4.6-15.4-3.1-13.4-3.6-27.6-1.5-41.3.5-3.5,1.5-7,2.1-10.5l8.4,1.9,2.2-7.7C30.2,42,56.8,17.4,88.8,8.9c8.5-2.3,17.4-3.4,26.2-3.4v1.2c-17.2,0-34.3,4.5-49.3,12.9-23.4,13.2-40.9,35.7-47.6,61.8,0,.5,0,.3.3.4.9.3,6.2,1.3,6.4,1.8-.5,2.5-1.2,5-1.6,7.5-2.5,15-1.3,29.8,3.2,44.3.3.8,1.9,5,1.7,5.3l-1.6.5,2.6,6.8-4.3,2.2c11.3,23.2,31.6,41.5,55.8,50.3,15.1,5.5,32.7,7.5,48.6,5,.7-.1,3.8-.5,4-.8l-1.1-7c5.4-.9,10.8-2.4,15.9-4.4,5.5-2.1,10.7-4.8,15.8-7.6l8.4,14.4ZM84.3,18.7c-2.1.1-2.6-3.4-.2-3.5,2.2-.1,2.4,3.4.2,3.5ZM77.8,19.9c-1.4-1.7,1.2-3.8,2.7-2.3,1.7,1.7-1.3,4-2.7,2.3ZM74.9,22.5c-2.8.6-2.9-2.9-.9-3.3,2-.4,2.8,2.8.9,3.3ZM68.8,24.8c-.8-.3-1.2-1.6-.9-2.2,0,0,1-.9,1.1-.9,3-1,3.3,4.3-.2,3.2ZM63.8,27.3c-1.7-1.6.8-4.2,2.5-2.6,1.6,1.6-.7,4.1-2.5,2.6ZM60.6,30.7c-2.1-.1-2.2-3.6.2-3.5,2.3,0,1.9,3.6-.2,3.5ZM57.8,33c-2.1,2.7-4.5-1.7-2-2.5,1.7-.5,3.1,1.1,2,2.5ZM54.1,35.7c-1,2.7-4.3,1-3.4-1,.4-.8,1.7-1.3,2.5-.9.3.2.4.7.6,1,0,.2.6,0,.3.8ZM48.5,40.8c-2.2.1-2.4-3.4-.2-3.5,2.2-.2,2.4,3.4.2,3.5ZM44.9,44.6c-2.1.1-2.5-3.2-.4-3.6,2.3-.4,2.7,3.4.4,3.6ZM32.3,58.1c2.1-.2,2.5,3.4.2,3.5-2.1.1-2.5-3.3-.2-3.5ZM31.9,64.3l-6,16.3c-.3.2-3.7-.5-4.1-.8-.3-.2-.2-.3-.2-.7.1-.9,1.1-3.3,1.5-4.3,1.5-4.2,3.4-8.3,5.2-12.4.3-.2,1.3,1,1.7,1.2.6.3,1.2.5,1.8.7ZM35.2,53.5c1.9,0,2.6,3.5,0,3.5-2.4,0-2.1-3.5,0-3.5ZM37.3,49.4c2.7-.8,3.3,2.6,1.3,3.2-2.2.7-2.9-2.7-1.3-3.2ZM39.7,46.1c.8-1.8,3.3-1.1,3.4.8,0,.5-.5.4-.6.6-.2.3-.2.8-.5.9-1.5.4-3-.8-2.3-2.3ZM78.3,196.1c-.9-.3.5-3.5,1-3.6,0,0,.8.2.8.2.1.2-.8,3.6-1.8,3.3ZM81,193.2l.9.3-.9,3.2-1.2-.5,1.2-3ZM77,195.4c-2.3-.3-.4-2.2,0-3.4,2.6-.6,0,2.3,0,3.4ZM74.7,194.4l-.8-.2,1.2-3.3,1.2.2-1.6,3.3ZM72.9,193.5c-2.6,0,.1-2.2.3-3.6l1.2.2-1.5,3.3ZM71,192.5c-2.4,0-.3-2.1.1-3.4h1.1s-1.2,3.4-1.2,3.4ZM69,191.3c-.5.3-1.3,0-1.1-.8,0-.6,1.8-3.8,2.6-2-.4.3-1.3,2.6-1.4,2.7ZM66.5,190.3c-1.6-.3.9-2.8.8-3.6.4,0,1.2.3,1.2.8,0,.2-1.7,2.9-2,2.8ZM64.6,189.1c-1.6-.3.8-2.6.8-3.3.4-.1,1.2,0,1.1.5-.3.5-1.4,2.9-2,2.8ZM63.3,187.9c-.4.2-1.2-.3-1.2-.8,0-.4,1.6-2.7,2.2-2.6,1.2.4-1.2,2.7-1.1,3.3ZM61.3,186.7c-.2.1-.6,0-.8-.2-.8-.6.2-.9.5-1.3.7-1,.4-1.6,2.1-1.6,0,.1-1.6,3-1.7,3.1ZM59.1,185.6c-1.4-.3.3-2.8.9-3.3.6-.5.9,0,1.3.5l-2.2,2.8ZM59.4,181.7c-.1.4-1.8,2.7-2.2,2.6-1.7-.3,1.1-3.5,1.4-3.6.4,0,.8.5.7.9ZM55.7,182.9l-1.1-.8c.8-.4,1.4-2.1,1.9-2.4.3-.1,1.1,0,1.2.1.3.4-1.7,2.7-2,3.1ZM54.3,181.2c-.6.5-1.4,0-1.3-.6,0-.2,2.1-2.5,2.3-2.5.3,0,.8.5.8.8,0,.1-1.6,2.1-1.8,2.3ZM54.4,177.7c-.6.4-1.9,2.5-2.5,2.3-1.5-.4,1.4-2.8,1.7-3.4.4,0,1,.6.8,1ZM50,178.1v-.5c0-.2,1.8-2,2-2.1.5-.1.7.3,1,.6-.8.4-2.3,3.5-3,2ZM48.3,176.7c-.4-.9,1.6-2.2,2.2-2.9l.8.8c-.8.6-2,3.4-3,2.1ZM49.5,173.6c-.1.3-2,2.3-2.5,1.8-1.4-.3,1.6-2.9,1.8-3,.8-.2,1,.6.7,1.2ZM46,173.9c-.5.3-1.1-.4-.9-.9.1-.6,2.5-2.6,3.1-1.8.3.4-1.8,2.6-2.2,2.8ZM43.4,171.5l2.5-2.3.8.8c-1.1.9-2.2,3.4-3.3,1.5ZM41.3,169.7c-.4,0-.8-.6-1-.8-1.6-1.7-3.6-4.5-5-6.5-2.4-3.4-4.4-7-6.5-10.6-.2-.8,1.8-1.3,2.5-2,.3-.3.6-.8.6-1.2,2.1,2.9,3.7,6.3,5.7,9.3,2,3.1,4.3,6,6.8,8.8l-3,2.9ZM82,197.4l1-3.1c2.4-.7.2,2.2.3,3.5l-1.2-.4ZM85.1,194.7l.9.3c.3.3-.7,3.5-1.1,3.5-1.8-.1.1-2.6.1-3.8ZM87.5,199h-1.2c-.2-.2.7-3.5,1.1-3.6.2,0,.7.2.8.2.3.5-.9,2.6-.7,3.3ZM88.3,199.2c0-.8.7-2.2.9-3.1l1.2.2c-.3.5-.6,2.9-.8,3.1-.2.2-1.3.5-1.3-.2ZM91.2,196.8c.2-.4,1,0,1,0,.2.4-.6,3.6-.8,3.6-1.4.3-.5-3.1-.2-3.6ZM94.4,197.3l-.7,3.6-.8-.2c-.4-.3,0-4.5,1.5-3.4ZM95.7,197.8l.9.3c-.2.5-.4,3.3-1.1,3.1-1.2-.3,0-2.7.1-3.4ZM98.3,201.6h-1.2s.5-3.6.5-3.6c.1,0,1.1.2,1.2.3.2.2-.7,2.7-.5,3.3ZM99.3,202.1c0-.7,0-3.4.6-3.6h.8s-.2,3.6-.2,3.6h-1.2ZM101.9,198.9h1c0-.1-.2,3.5-.2,3.5h-1.2c0-1.2,0-2.3.5-3.5ZM103.8,199.2l1.2-.2-.2,3.8c-.6.3-.4-.5-.6-.5l-.6.2c0-.4,0-.9,0-1.3,0-.5.5-.3.5-.4,0-.4-.4-1-.2-1.6ZM106,199.2l1.2.3-.2,3.3h-1.2c.5-1.2.2-2.3.2-3.6ZM108.1,202.8v-3.4h1.2v3.6l-1.2-.2ZM111.5,199.5v3.6c-.3,0-.8,0-1.1-.2-.3-.2-.5-4.2,1.1-3.4ZM112.4,199.7l1.2.3v3.1s-1.2,0-1.2,0c.4-1.1-.1-2.2,0-3.4ZM116.5,203.5v-4.1l13-1.2c.3,0,1,4.2,0,4.5-4.3.6-8.7,1-13.1.8ZM171.8,183.4c-2-1.3.4-4.5,2.2-2.6,1.4,1.5-.5,3.7-2.2,2.6ZM176,180.4c-1.3-.4-1.4-2.9.2-3.2,3-.6,2.8,4.2-.2,3.2ZM181.4,176.8c-1.8,1.5-3.7-1.5-2-2.6,1.9-1.3,3.7,1.2,2,2.6ZM182.8,173.3c-1.8-1.9,1.3-4.4,2.6-2.2,1.1,1.9-1.3,3.6-2.6,2.2ZM188,169.9c-2.4.8-3.1-2.7-1.3-3.2,2.5-.8,3.2,2.6,1.3,3.2ZM191.9,165.3c-.9,1.8-3.6.2-3.2-1.4.6-2.2,4.5-1.3,3.2,1.4ZM193.6,162.1c-2.1.1-2.6-3.5-.2-3.5,2.2,0,2.3,3.4.2,3.5ZM196.9,157.7c-2.5.7-3.2-2.8-1.3-3.3,2.6-.6,2.8,2.8,1.3,3.3ZM198,153.3c-1.3-.6-1.4-2.8.2-3.2,3.4-.7,2.5,4.3-.2,3.2ZM170.2,178c-46.7,36-114.3,18.1-137.9-35.4-21.2-48.1,4.2-104.4,53.4-121.2,36.6-12.4,77-.4,100.7,30,30.7,39.4,23.2,96.2-16.2,126.6ZM208.8,143.3c-.2,0-3.4-1.2-3.6-1.4-.4-.3-.3-1.3.6-1.1.4,0,3.5,1.2,3.6,1.4.2.4,0,1.2-.5,1.1ZM210.4,140c-.2.3-.4.2-.7.2-.7,0-4.1-1-3.8-2,.2-.8,4.4.7,4.5.8,0,.1,0,.8,0,1ZM211.5,137.1l-4.2-1.2c-.4-.3-.1-1.3.4-1.2.5.4,3.5,1,3.7,1.2.1.2,0,.8,0,1.2ZM212.1,134c-.6,0-3-.7-3.6-1-.2,0-.5,0-.6-.4.1-.5,0-.8.6-.8.4,0,3.8.8,3.9,1,.1.2.3,1.2-.3,1.2ZM213.1,130.9l-4.3-1v-1.2s4.3.8,4.3.8v1.3ZM217.2,128.3l-7.7-1.4v-1.2s7.3,1.2,7.3,1.2c.6.2.4.9.4,1.4ZM210,123.2v-.8c.3-.8,4.7,0,4.8.5l-.2,1.1-4.6-.7ZM223.7,123.2l-16.4-2.4c1.1-8.9,1.3-17.8.1-26.7-.8-5.6-2-11.1-3.7-16.4-2.8-8.7-7-16.9-12.3-24.4l1.3-1c.2-.3.1-.5,0-.8-.1-.4-3.5-4.6-4-5.3-7.4-9.1-17-16.8-27.3-22.4-.1-.3,0-.6.2-.9.6-1.5,2.2-4.1,3.1-5.5.3-.4.9-1.7,1.3-1.8,5.9,3,11.2,6.9,16.3,11.2,6.9,5.8,13.2,12.3,18.1,19.7.3.2,3.4-2.3,3.9-2.6.2-.1.3-.4.6-.1,3.6,5.2,6.9,10.6,9.6,16.3,9.2,19.5,12.4,41.8,9.1,63.1Z"/>
      <path style="fill: #e9c967;" d="M32.5,73.4c-26.7,66.2,32.1,134.8,100.6,120.2,65.9-14.1,93.8-92.5,49.9-144.4C139.9-1.8,57.4,11.7,32.5,73.4ZM81.6,186.9C26.8,164.5,10.6,92.5,50.7,48.4,96.1-1.5,179.3,17.4,198.1,82c20.3,70.1-49.1,132.5-116.5,104.9Z"/>
      <path style="fill: #e9c967;" d="M30,121.1c9.8,59.9,78.5,91,130.3,58.8,46.3-28.8,55.1-94.3,16.2-133.2C116.5-13.4,16.4,37.9,30,121.1ZM193.7,132.5c-21.1,60.1-103.1,73-143.4,24.2C8.1,105.4,44.5,30.7,109,26.9c57.3-3.4,104.5,49.1,84.7,105.5Z"/>
      <path style="fill: #e9c967;" d="M160.8,40.6c-49.3-31.5-118.8-3.9-127.2,54.9-10.2,71.7,74.3,116.2,131.2,74.6,45.3-33.1,43.2-99.4-4-129.5ZM184.4,141.2c-27.9,55.6-104.4,58.5-135.9,4.6C18,93.7,57.2,28.6,117,30.2c15.6.4,30,4.9,42.8,13.9,30.8,21.8,41.7,63.1,24.6,97Z"/>
    </g>
  </g>
  <g>
    <g>
      <path style="fill: #d7c99b;" d="M147.2,105c-.4-.4-1.4,0-3.4.6-2.7.8-2.4.5-4.1,1-2.2.7-3.3,1.1-4.3,2.1-1.1,1-.9,1.6-2.1,2.5-.1.1-.3.2-.4.3,0-.5,0-1,0-1.7,0-2.6.2-3.1.3-4,0,0,0,0,0,0,.8-.2,2.2-.6,3.8-1.6.6-.4,1.8-1.1,3-2.4,1.5-1.6,2.3-3.2,2.7-4.3.2-.5.6-1.5.9-2.8.3-1.3.1-1.1.5-5,.1-1,.2-1.7-.1-1.9-.3-.2-.8.2-1.2.5-1.3.9-.4,0-3.5,2-1.8,1.1-2.7,1.7-3.6,2.6-1.3,1.1-1.8,1.9-1.9,2.1-.6,1-.5,1.3-1,2.2,0,.2-.2.3-.3.5,0-.5-.2-1.1-.3-1.8-.4-2.7-.5-3.6-.7-4.4,0,0,0,0,.1,0,.9-.6,1.6-1.2,1.7-1.3,1.2-1.1,1.9-2.2,2.6-3.3.8-1.3,1.3-2.1,1.8-3.2.6-1.5.1-1.2.9-5.4,0-.1.3-1.8,0-3.2-.3-.9-.6-1-.7-1.1-.2,0-.3,0-.4,0-1.5.7-2.6,1.7-2.6,1.7-.8.7-1.6,1.4-2.4,2.1-1.8,1.5-1.8,1.5-2.1,1.8-.9,1-.9,1.5-1.8,2.9-.3-.5-.5-1-.8-1.4-.2-.4-.5-.8-.8-1.2.1-.1.2-.3.3-.4.7-1,1.6-2.3,2.2-4.3.8-2.8.3-4.9,0-5.6-.3-.9-.5-1.6-1-1.7-.7-.2-1.1.8-3.7,3.6-1.1,1.2-1.7,1.7-1.9,2.7,0,.3,0,.3-.1,1.4,0,0-.2,0-.2,0-.1,0-.2.2-.2.3l.6-25.2-7.8-10.7-7.5,10.9,1.9,92.2h11l.5-20.5c-.1-.8-1-1-1.4-1.5-1.4-1.6-2-4.3-2.4-6.4l4.1.8v-2.7c-2.2-1-4-2.4-5.5-4.2v31.2c-.6,0-.4,0-.5-.4-.4-2.8,0-6.8,0-9.8-.1-7.2-.4-14.5-.3-21.8-.2-.9-.9-1.1-1.2-1.5-.4-.7-2.4-3.9-2.4-4.5,0-.5,0-.3.4-.4,1-.1,2.2-.2,3.2-.2v-7.3c0,0-.5-.5-.6-.8-1-2.2-2.3-4.4-2.8-6.8h3.4c0,.1-.2-31.6-.2-31.6l.3-.4.4.8.2,31.5c2.3.1,4.2,1.3,6.2,2.2l.3-10.7c0,.3.1.7.2,1,.2.9.4,1.7.6,2.5l-.3,2.8,1.4,3.2c.2.8,1.7,4.2,2.5,6.2-3.7-4-8.2-6.8-13.9-7,1.8,5.5,4.1,10.3,9.7,12.7,1.7.8,3.5,1.1,5.3,1.7,0,.8,0,1.6,0,2.4,0,1.2,0,2.3,0,3.4l-4.3-3c-2.8-1.5-6.9-2.5-10.1-2.1-.2,0-1,.1-.8.5.3.9,2.1,3.3,2.8,4.2,3.1,4.2,6.4,6.5,11.8,6.7.2.4-.2.6-.2.7-.4,2.1-.7,2.8-1.7,4.6-.1.2.3.9-.4.7-1.6-2-3.9-3.6-6.6-3.8.5,2.9,2.1,6.3,5,7.2v.4c0,.2-.5.3-.5.4-.2.6-.2,1.4-1,1.9,0,1.4-.2,2.7-.2,4-.2.6-.3,1.2-.4,1.8-.2,1,.2,4.1.2,4.1,0,0,4.3-3.4,6.2-7.1,0,0,0,0,0-.1.2,0,.4,0,.6.1,1,.2,1.4.3,1.9.3,1,0,1.7-.3,3.1-.8,2-.7,3-1.4,3.5-2.2.3-.5.2-.8.2-.9-.1-.4-.5-.6-.9-.8-1.4-.6-2.4-.7-2.4-.7-1.1,0-1.7,0-3.2.2-.3,0-.6,0-.9,0,.3-.6.6-1.4,1-2.4.3-.6.5-1,.6-1.4.5,0,1.1-.2,1.7-.3,1.9-.3,3.2-1,4-1.4.4-.2,2.3-1.2,4.4-3.1.7-.6,1.9-1.8,3.1-3.5.9-1.4,1.4-2.6,2.3-5,.2-.6.4-1.1.2-1.4ZM126.1,97.9c-3.1-.2-8-4.3-9.2-7-.3-.6-.3-1.3.5-.9.1,0,1.3,2.2,1.7,2.7,1.1,1.3,2.7,2.6,4.2,3.5.2.1,3.3,1.2,2.8,1.7ZM127,110.5c-.2.6-1.8,0-2.3,0-3.2-.9-6-2.9-8-5.4-.1-.6.4-.4.7-.2.7.4,1.7,1.8,2.4,2.4.4.3.8.2,1.1.4,2.3,1.5,2.6,1.6,5.3,2.4.3,0,.9,0,.7.5ZM121.9,120.4c-.3-.3-1.4-2.6-.1-1.8.1,0,.9,1.5,1.5,2,.6.5,1.3,1,2,1.1l.2.7c-.4.4-3.2-1.6-3.5-2Z"/>
      <path style="fill: #d7c99b;" d="M119.2,98.5c-1.2-.8-2.1-1.9-3.1-3v5.6c.9.5,2.3.5,3.4.7.9.2,1.7.6,2.6.6.6-3-1-2.7-2.9-4Z"/>
      <polygon style="fill: #d7c99b;" points="119.9 146.3 110.4 146.6 110.5 164.6 119.9 164.6 119.9 146.3"/>
      <path style="fill: #d7c99b;" d="M121.1,165.3c-3.5.2-7.6-.4-11,0-2,.2-1.3,1.9-1.1,3.4h12.1c.8-.6.9-3,0-3.3Z"/>
      <path style="fill: #d7c99b;" d="M109.7,146.3l.3-.7c3.2.4,7.2-.4,10.3,0,.4,0,.3.3.5.5l3.5-2.2h-18l3.5,2.4Z"/>
      <path style="fill: #d7c99b;" d="M107.3,57.1c-.2-.6-1.6-1.2-1.4-2.2.7-.4.8,1,1.4,1.1l-.2-2.5-3.1-.3c-.4.4,2.6,6.4,3.2,7.2,0-1,.3-2.3,0-3.2Z"/>
    </g>
    <g>
      <path style="fill: none;" d="M124.2,143.9h-18l3.5,2.4.3-.7c3.2.4,7.2-.4,10.3,0,.4,0,.3.3.5.5l3.5-2.2Z"/>
      <path style="fill: none;" d="M105.9,54.9c.7-.4.8,1,1.4,1.1l-.2-2.5-3.1-.3c-.4.4,2.6,6.4,3.2,7.2,0-1,.3-2.3,0-3.2-.2-.6-1.6-1.2-1.4-2.2Z"/>
      <path style="fill: none;" d="M120.8,143.2l.5-20.5c-.1-.8-1-1-1.4-1.5-1.4-1.6-2-4.3-2.4-6.4l4.1.8v-2.7c-2.2-1-4-2.4-5.5-4.2v31.2c-.6,0-.4,0-.5-.4-.4-2.8,0-6.8,0-9.8-.1-7.2-.4-14.5-.3-21.8-.2-.9-.9-1.1-1.2-1.5-.4-.7-2.4-3.9-2.4-4.5,0-.5,0-.3.4-.4,1-.1,2.2-.2,3.2-.2v-7.3c0,0-.5-.5-.6-.8-1-2.2-2.3-4.4-2.8-6.8h3.4c0,.1-.2-31.6-.2-31.6l.3-.4.4.8.2,31.5c2.3.1,4.2,1.3,6.2,2.2l1-38-7.8-10.7-7.5,10.9,1.9,92.2h11Z"/>
      <polygon style="fill: none;" points="119.9 146.3 110.4 146.6 110.5 164.6 119.9 164.6 119.9 146.3"/>
      <path style="fill: none;" d="M119.2,98.5c-1.2-.8-2.1-1.9-3.1-3v5.6c.9.5,2.3.5,3.4.7.9.2,1.7.6,2.6.6.6-3-1-2.7-2.9-4Z"/>
      <path style="fill: none;" d="M123,89.4c.2.8,4.2,2.9,3.8,4.5-3.7-4-8.2-6.8-13.9-7,1.8,5.5,4.1,10.3,9.7,12.7,1.8.8,3.7,1.1,5.4,1.8.1.6-.5.4-.8.3-1.6-.2-3.1-1.1-4.7-1.2.1.5-.2,2,0,2.4,0,.1,1.8.8,2.2,1,1.1.7,3.3,1.8,3.3,3.2l-4.4-3c-2.8-1.5-6.9-2.5-10.1-2.1-.2,0-1,.1-.8.5.3.9,2.1,3.3,2.8,4.2,3.1,4.2,6.4,6.5,11.8,6.7.2.4-.2.6-.2.7l-4.8-1c.1.6-.2,2.7,0,3.1,0,0,.7.2.9.4.8.6,1.4,1.4,2.2,2-.1.2.3.9-.4.7-1.6-2-3.9-3.6-6.6-3.8.5,2.9,2.1,6.3,5,7.2v.4c0,.2-.5.3-.5.4l-1-.5c0,.8,0,1.6,0,2.4,0,1.6-.3,3.3-.2,4.9h.5c2.1-3.1,4.3-6.3,5.6-10,3.1-8.3,3.3-15.4,1.4-24.2-1.2-5.6-3.1-11.3-5.9-16.3l-.5,4.4v5ZM126.1,97.9c-3.1-.2-8-4.3-9.2-7-.3-.6-.3-1.3.5-.9.1,0,1.3,2.2,1.7,2.7,1.1,1.3,2.7,2.6,4.2,3.5.2.1,3.3,1.2,2.8,1.7ZM127,110.5c-.2.6-1.8,0-2.3,0-3.2-.9-6-2.9-8-5.4-.1-.6.4-.4.7-.2.7.4,1.7,1.8,2.4,2.4.4.3.8.2,1.1.4,2.3,1.5,2.6,1.6,5.3,2.4.3,0,.9,0,.7.5ZM121.9,120.4c-.3-.3-1.4-2.6-.1-1.8.1,0,.9,1.5,1.5,2,.6.5,1.3,1,2,1.1l.2.7c-.4.4-3.2-1.6-3.5-2Z"/>
      <path style="fill: none;" d="M110.1,165.3c-2,.2-1.3,1.9-1.1,3.4h12.1c.8-.6.9-3,0-3.3-3.5.2-7.6-.4-11,0Z"/>
      <path style="fill: #6b4f24;" d="M120.8,146.9l5.5-3.5h-4.8c.2-2.1.2-7.4.2-7.8,0-.9-.2-3.1,0-3.8.1-.3,3-3.8,3.5-4.6,8.6-13.8,7.1-32.8-.7-46.7-.3-.5-1.3-1.5-1.3-1.8-.3-1.1,0-3.7.6-4.9.6-1.3,3.5-4.7,4.8-5.3.2,0,.2-.4.5,0,.5.9.7,4,.6,5.1-.2,2.3-1.3,3.6-2.4,5.4-.2.3-1,1.7.1,1.2.5-.2,2.1-3.3,2.3-3.9.8-2.5,1-6.3-.2-8.7-.5-1-2,1.2-2.6,1.4l-3.5,3.8.4-22.6c-2.5-3.3-4.8-6.9-7.3-10.2-.3-.5-.7-1.2-1.3-1.2l-8,11.5v2.1c.1,0-4.2-.2-4.2-.2.9,3.4,2.3,7.2,4.6,9.9.1,14.4.5,28.7.7,43,.1,7.8.3,15.6.5,23.4,0,4.8,0,9.7.2,14.5h-5c-.1.5.2.5.4.7.5.5,1.3,1,1.9,1.4,1.1.8,2.3,1.4,3.4,2.1v17c-.1.5-1.5-.2-1.7,1.9-.1,1.2-.1,2.8,1.3,3,2.1.3,9.6.3,11.8,0,1.4-.2,1.3-2.9,1-3.9-.2-.8-1.6-.8-1.6-1v-17s.3-.5.3-.5ZM107.3,60.3c-.6-.8-3.6-6.8-3.2-7.2l3.1.3.2,2.5c-.6,0-.8-1.5-1.4-1.1-.2,1,1.2,1.6,1.4,2.2.3.9,0,2.2,0,3.2ZM123.5,79.9c2.8,5,4.7,10.7,5.9,16.3,1.9,8.8,1.7,15.9-1.4,24.2-1.4,3.7-3.5,6.8-5.6,10.1h-.5c0-1.8.2-3.4.2-5,0-.8,0-1.6,0-2.4l1,.5c0,0,.4-.2.5-.4v-.4c-3-.9-4.6-4.3-5-7.2,2.7.2,5,1.8,6.6,3.8.6.2.2-.5.4-.7-.8-.6-1.4-1.4-2.2-2-.3-.2-.9-.3-.9-.4-.2-.4,0-2.4,0-3.1l4.8,1c0-.1.4-.3.2-.7-5.4-.2-8.7-2.5-11.8-6.7-.7-.9-2.4-3.3-2.8-4.2-.2-.4.6-.5.8-.5,3.2-.4,7.3.6,10.1,2.1l4.4,3c0-1.4-2.2-2.5-3.3-3.2-.4-.2-2.1-.9-2.2-1-.2-.3,0-1.8,0-2.4,1.6.1,3.1,1,4.7,1.2.3,0,.9.3.8-.3-1.8-.7-3.7-1-5.4-1.8-5.6-2.5-7.9-7.2-9.7-12.7,5.7.1,10.2,3,13.9,7,.4-1.6-3.5-3.7-3.8-4.5v-5c0,0,.4-4.4.4-4.4ZM116,101.2v-5.6c1,1,1.9,2.1,3.1,3,1.9,1.3,3.4.9,2.9,4-.9,0-1.7-.5-2.6-.6-1.1-.2-2.5-.1-3.4-.7ZM107.9,51.1l7.5-10.9,7.8,10.7-1,38c-2-.8-4-2-6.2-2.2l-.2-31.5-.4-.8-.3.4.2,31.7h-3.4c.5,2.3,1.8,4.5,2.8,6.7.1.3.6.8.6.8v7.3c-1,0-2.2,0-3.2.2-.3,0-.4-.1-.4.4,0,.5,2,3.8,2.4,4.5.3.4,1,.6,1.2,1.5-.1,7.3.1,14.6.3,21.8,0,3-.4,7,0,9.8,0,.4,0,.4.5.4v-31.2c1.5,1.9,3.4,3.2,5.5,4.2v2.7s-4.1-.8-4.1-.8c.4,2.1,1,4.8,2.4,6.4.4.5,1.3.7,1.4,1.5l-.5,20.5h-11l-1.9-92.2ZM121.1,165.3c.9.3.9,2.8,0,3.3h-12.1c-.3-1.5-.9-3.2,1.1-3.4,3.4-.3,7.5.2,11,0ZM110.4,146.6l9.5-.2v18.2h-9.4v-18ZM120.2,145.6c-3.1-.4-7.1.4-10.3,0l-.3.7-3.5-2.4h18l-3.5,2.2c-.2-.2,0-.4-.5-.5Z"/>
      <path style="fill: #6b4f24;" d="M135.1,108.7c-.8.6-1.3,1.6-2.2,2v1.4c.8-.6,1.2-1.5,2-2.2,3.3-3,7.8-3.6,12-4.6.3.1,0,.5,0,.7-1.4,4.4-3.6,7.9-7.5,10.5-2.3,1.5-4.9,2.6-7.7,2.4-.3.2-.2.7-.2.9,2.8.2,5.4-.8,7.7-2.2.8-.5,2.4-1.6,3-2.1.5-.5,1.6-1.8,2-2.4,1.8-2.4,3.3-5.4,3.5-8.4-4.2.5-9.1,1.4-12.6,4.1Z"/>
      <path style="fill: #6b4f24;" d="M130.2,123.3c0,.1-.7.2-.5.7,2.5-.3,5.2-1.2,7.2.8-2.2,2.6-5.6,3.8-9,3-.4.1-.3.5-.4.7,4,1,7.8-.4,10.2-3.6-1.5-2.7-5-2.3-7.6-1.7Z"/>
      <path style="fill: #6b4f24;" d="M132.6,97.1c0,.3-.3.9.3.8.7-1.2,1.2-2.4,2-3.5,2.2-2.8,5.9-4.4,9-6.1,1,5.4-1.4,11.1-5.5,14.6-1.4,1.2-3.2,2.3-5.1,2.4v.7c6.3-.8,10.7-7.4,11.5-13.3.1-.8.4-5.2-.3-5.4-3.9,1.8-10.6,5.3-11.8,9.8Z"/>
      <path style="fill: #6b4f24;" d="M128.8,83.3c1.9-4,5.4-6.8,9.2-8.9,1.6,6.2-.8,12.2-5.5,16.3-.2.2-1.5.7-1,1.2.5.5,3.4-2.4,3.7-2.9,3.6-4.2,5-10.3,3.2-15.6-.3,0-.6,0-.9.1-2.4,1.1-8.6,6.5-9.1,9.1,0,.3-.1.7.3.6Z"/>
      <path style="fill: #6b4f24;" d="M133.6,84.7c.7-.9,2-3.4,2.1-4.6.2-1.2-.5-1.2-.9-.2-.9,2.4-.9,3.3-2.8,5.4-.3.3-2.5,2-2.2,2.3.6.5,3.3-2.4,3.7-2.9Z"/>
      <path style="fill: #6b4f24;" d="M135.2,101.2c2.4-1.3,5-4.6,5.5-7.3-.6,0-.5-.2-.8.3-1.1,2-1.4,3.4-3.3,5.1-.6.5-1.6,1-2.1,1.5-.9.8-.2,1,.7.5Z"/>
      <path style="fill: #6b4f24;" d="M141.4,109.9c-1-.1-.9.7-1.3,1.2-2.1,2.3-3.7,2.7-6.4,4-.4.2-.6,0-.5.6,1.5.1,3.3-.8,4.5-1.6.6-.4,4.3-3.5,3.6-4.2Z"/>
      <path style="fill: #6b4f24;" d="M128,126.7c1.5,0,2.8,0,4.2-.5.7-.2,1.7-.5,1.5-1.4-.7.2-1.1.6-1.9.8-1.1.3-2.6.1-3.4.4-.3,0-.5.4-.4.7Z"/>
      <path style="fill: #6b4f24;" d="M127.5,73h-.7c-.3.9-.6,2-.9,2.7-.1.2-2,1.8-1.7,2.1,1.4.4,3.8-4.4,3.4-4.8Z"/>
      <path style="fill: #6b4f24;" d="M126.3,110c-2.7-.8-3.1-.9-5.3-2.4-.3-.2-.8-.2-1.1-.4-.8-.6-1.7-2-2.4-2.4-.3-.2-.8-.3-.7.2,2,2.6,4.8,4.6,8,5.4.5.1,2.1.7,2.3,0,.2-.5-.5-.4-.7-.5Z"/>
      <path style="fill: #6b4f24;" d="M123.3,96.2c-1.4-.8-3.1-2.2-4.2-3.5-.5-.5-1.6-2.6-1.7-2.7-.8-.5-.8.2-.5.9,1.1,2.7,6.1,6.8,9.2,7,.5-.5-2.5-1.5-2.8-1.7Z"/>
      <path style="fill: #6b4f24;" d="M123.2,120.6c-.6-.5-1.4-1.9-1.5-2-1.3-.8-.1,1.5.1,1.8.3.4,3.1,2.4,3.5,2l-.2-.7c-.7,0-1.4-.6-2-1.1Z"/>
    </g>
  </g>
  </g><!-- end sh-content -->
  <rect id="sh-shine" x="0" y="0" width="230.4" height="218.9" fill="url(#sh-shine-grad)" mask="url(#sh-mask)" pointer-events="none" opacity="0"/>
</svg>